<svg width="52" height="33" viewBox="0 0 52 33" fill="none" xmlns="http://www.w3.org/2000/svg">
<path d="M19.7478 15.5253V14.1108C19.7478 13.7557 19.1843 13.5892 18.8942 13.5633C18.1593 13.4983 16.6867 13.4925 15.9567 13.5633C15.4603 13.6112 15.1605 13.7653 15.104 14.284C15.025 15.007 15.0596 15.7982 15.0942 16.5905C15.1261 17.321 15.1581 18.0524 15.1011 18.7324C15.1517 19.2501 15.4622 19.4119 15.9547 19.453C16.6643 19.5133 18.3871 19.5363 19.0675 19.4463C19.3069 19.4147 19.7488 19.1621 19.7488 18.9027V17.3733H25.3329V20.5192C25.3329 21.8667 24.3294 23.2774 23.0806 23.7913C21.6105 24.3959 19.371 24.2886 17.2393 24.1865C15.8652 24.1207 14.5358 24.057 13.4863 24.1875C8.89883 24.0481 9.10401 19.9836 9.28912 16.3166C9.3518 15.075 9.41218 13.8789 9.28341 12.8963C9.45666 10.2204 10.9313 8.97428 13.6041 8.82594C15.8097 8.70344 18.8076 8.70727 21.0151 8.82594C22.919 8.92834 24.4919 9.56095 25.0944 11.4588C25.1626 11.6732 25.3329 12.3039 25.3329 12.4943V15.5253H19.7478Z" fill="url(#paint0_linear_2170_2933)"/>
<path d="M37.6765 16.3617L42.5549 8.82876H36.2359L34.0615 12.4646L31.8861 8.82876H25.2147L30.0902 16.3617L24.9792 24.1846H31.3867L33.7082 20.2598L36.1182 24.1846H42.7904L37.6765 16.3617Z" fill="url(#paint1_linear_2170_2933)"/>
<path fill-rule="evenodd" clip-rule="evenodd" d="M41.0839 0H10.9161C4.88717 0 0 4.80534 0 10.7333V22.2667C0 28.1947 4.88717 33 10.9161 33H41.0839C47.1128 33 52 28.1947 52 22.2667V10.7333C52 4.80534 47.1128 0 41.0839 0ZM41.0839 4.55268C44.55 4.55268 47.3698 7.32525 47.3698 10.7333V22.2667C47.3698 25.6748 44.55 28.4473 41.0839 28.4473H10.9161C7.44999 28.4473 4.6302 25.6748 4.6302 22.2667V10.7333C4.6302 7.32525 7.44999 4.55268 10.9161 4.55268H41.0839Z" fill="url(#paint2_linear_2170_2933)"/>
<defs>
<linearGradient id="paint0_linear_2170_2933" x1="0" y1="0" x2="61.1528" y2="39.1112" gradientUnits="userSpaceOnUse">
<stop stop-color="white"/>
<stop offset="1" stop-color="#999999"/>
</linearGradient>
<linearGradient id="paint1_linear_2170_2933" x1="0" y1="0" x2="61.1528" y2="39.1112" gradientUnits="userSpaceOnUse">
<stop stop-color="white"/>
<stop offset="1" stop-color="#999999"/>
</linearGradient>
<linearGradient id="paint2_linear_2170_2933" x1="0" y1="0" x2="61.1528" y2="39.1112" gradientUnits="userSpaceOnUse">
<stop stop-color="white"/>
<stop offset="1" stop-color="#999999"/>
</linearGradient>
</defs>
</svg>
